<svg xmlns="http://www.w3.org/2000/svg" xmlns:xlink="http://www.w3.org/1999/xlink" zoomAndPan="magnify" preserveAspectRatio="xMidYMid meet" version="1.0" viewBox="151.73 326.58 1096.8 159.98"><defs><g/><clipPath id="98f5723a28"><rect x="0" width="208" y="0" height="262"/></clipPath><clipPath id="9063e69fcf"><rect x="0" width="757" y="0" height="262"/></clipPath><clipPath id="866802fd89"><path d="M 918 372 L 1020 372 L 1020 484.738281 L 918 484.738281 Z M 918 372 " clip-rule="nonzero"/></clipPath><clipPath id="c3a5a37a42"><path d="M 896.8125 348.238281 L 1041.5625 348.238281 L 1041.5625 421 L 896.8125 421 Z M 896.8125 348.238281 " clip-rule="nonzero"/></clipPath></defs><g transform="matrix(1, 0, 0, 1, 1042, 273)"><g clip-path="url(#98f5723a28)"><g fill="#407947" fill-opacity="1"><g transform="translate(0.796723, 210.530323)"><g><path d="M 6.375 -77.59375 C 6.375 -87.613281 9.695312 -95.6875 16.34375 -101.8125 C 22.988281 -107.945312 31.742188 -111.015625 42.609375 -111.015625 C 45.253906 -111.015625 48.226562 -110.769531 51.53125 -110.28125 C 54.84375 -109.789062 56.847656 -109.546875 57.546875 -109.546875 C 58.796875 -109.546875 60.757812 -110.132812 63.4375 -111.3125 C 66.125 -112.5 68.160156 -113.09375 69.546875 -113.09375 C 70.941406 -113.09375 72.472656 -112.570312 74.140625 -111.53125 C 75.816406 -110.488281 77.347656 -109.097656 78.734375 -107.359375 C 81.660156 -103.316406 84.03125 -98.910156 85.84375 -94.140625 C 87.65625 -89.367188 88.5625 -85.140625 88.5625 -81.453125 C 88.5625 -78.597656 87.898438 -76.316406 86.578125 -74.609375 C 85.253906 -72.910156 83.476562 -72.0625 81.25 -72.0625 C 79.507812 -72.0625 77.90625 -72.546875 76.4375 -73.515625 C 74.976562 -74.492188 73.238281 -76.304688 71.21875 -78.953125 C 70.664062 -79.648438 69.863281 -80.726562 68.8125 -82.1875 C 62.96875 -90.257812 57.050781 -94.296875 51.0625 -94.296875 C 48.488281 -94.296875 46.28125 -93.476562 44.4375 -91.84375 C 42.59375 -90.207031 41.671875 -88.242188 41.671875 -85.953125 C 41.671875 -81.285156 47.625 -76.203125 59.53125 -70.703125 C 62.519531 -69.304688 64.847656 -68.191406 66.515625 -67.359375 C 75.847656 -62.898438 82.566406 -58.007812 86.671875 -52.6875 C 90.785156 -47.363281 92.84375 -40.90625 92.84375 -33.3125 C 92.84375 -22.875 88.875 -14.207031 80.9375 -7.3125 C 73 -0.414062 62.832031 3.03125 50.4375 3.03125 C 47.164062 3.03125 43.492188 2.660156 39.421875 1.921875 C 35.347656 1.191406 32.894531 0.828125 32.0625 0.828125 C 30.945312 0.828125 29.273438 1.191406 27.046875 1.921875 C 24.816406 2.660156 23.144531 3.03125 22.03125 3.03125 C 20.4375 3.03125 18.765625 2.488281 17.015625 1.40625 C 15.273438 0.332031 13.816406 -1.144531 12.640625 -3.03125 C 9.710938 -7.34375 7.410156 -11.863281 5.734375 -16.59375 C 4.066406 -21.332031 3.234375 -25.515625 3.234375 -29.140625 C 3.234375 -32.410156 4.015625 -35.109375 5.578125 -37.234375 C 7.148438 -39.359375 9.15625 -40.421875 11.59375 -40.421875 C 15.144531 -40.421875 19.359375 -36.625 24.234375 -29.03125 C 25.691406 -26.800781 26.800781 -25.128906 27.5625 -24.015625 C 29.789062 -20.671875 32.875 -18.003906 36.8125 -16.015625 C 40.75 -14.035156 44.804688 -13.046875 48.984375 -13.046875 C 52.804688 -13.046875 55.863281 -13.929688 58.15625 -15.703125 C 60.457031 -17.484375 61.609375 -19.875 61.609375 -22.875 C 61.609375 -28.019531 54.265625 -34.25 39.578125 -41.5625 L 38.4375 -42.1875 C 25.34375 -48.457031 16.722656 -54.0625 12.578125 -59 C 8.441406 -63.945312 6.375 -70.144531 6.375 -77.59375 Z M 6.375 -77.59375 "/></g></g></g><g fill="#407947" fill-opacity="1"><g transform="translate(94.066148, 210.530323)"><g><path d="M 102.234375 -52.640625 L 49.8125 -52.640625 C 47.375 -52.640625 45.84375 -52.394531 45.21875 -51.90625 C 44.59375 -51.414062 44.28125 -50.507812 44.28125 -49.1875 C 44.28125 -41.8125 47.007812 -35.40625 52.46875 -29.96875 C 57.9375 -24.539062 64.601562 -21.828125 72.46875 -21.828125 C 78.320312 -21.828125 84.484375 -23.359375 90.953125 -26.421875 C 97.429688 -29.484375 101.191406 -31.015625 102.234375 -31.015625 C 104.253906 -31.015625 105.976562 -30.40625 107.40625 -29.1875 C 108.832031 -27.96875 109.546875 -26.523438 109.546875 -24.859375 C 109.546875 -22.066406 108.832031 -19.503906 107.40625 -17.171875 C 105.976562 -14.847656 103.523438 -12.328125 100.046875 -9.609375 C 94.890625 -5.503906 89.054688 -2.367188 82.546875 -0.203125 C 76.035156 1.953125 69.195312 3.03125 62.03125 3.03125 C 45.25 3.03125 31.632812 -2.207031 21.1875 -12.6875 C 10.75 -23.164062 5.53125 -36.757812 5.53125 -53.46875 C 5.53125 -70.382812 10.925781 -84.304688 21.71875 -95.234375 C 32.507812 -106.171875 46.226562 -111.640625 62.875 -111.640625 C 77.351562 -111.640625 89.238281 -107.566406 98.53125 -99.421875 C 107.820312 -91.273438 112.46875 -80.9375 112.46875 -68.40625 C 112.46875 -61.789062 111.769531 -57.507812 110.375 -55.5625 C 108.988281 -53.613281 106.273438 -52.640625 102.234375 -52.640625 Z M 47.71875 -68.1875 L 75.296875 -68.1875 C 76.753906 -68.1875 77.796875 -68.460938 78.421875 -69.015625 C 79.054688 -69.578125 79.375 -70.59375 79.375 -72.0625 C 79.375 -78.46875 77.664062 -83.707031 74.25 -87.78125 C 70.84375 -91.851562 66.492188 -93.890625 61.203125 -93.890625 C 56.390625 -93.890625 52.257812 -91.691406 48.8125 -87.296875 C 45.375 -82.910156 43.65625 -77.550781 43.65625 -71.21875 C 43.65625 -70.101562 43.945312 -69.335938 44.53125 -68.921875 C 45.125 -68.503906 46.1875 -68.257812 47.71875 -68.1875 Z M 47.71875 -68.1875 "/></g></g></g></g></g><g transform="matrix(1, 0, 0, 1, 146, 273)"><g clip-path="url(#9063e69fcf)"><g fill="#407947" fill-opacity="1"><g transform="translate(1.453051, 210.530323)"><g><path d="M 88.34375 -93.46875 C 98.09375 -93.46875 103.976562 -94.039062 106 -95.1875 C 108.019531 -96.332031 109.03125 -99.097656 109.03125 -103.484375 C 109.03125 -111.566406 108.875 -118.304688 108.5625 -123.703125 C 108.25 -129.097656 107.847656 -132.210938 107.359375 -133.046875 C 106.867188 -133.953125 104.671875 -135.410156 100.765625 -137.421875 C 96.867188 -139.441406 94.921875 -142.265625 94.921875 -145.890625 C 94.921875 -149.992188 97.269531 -152.863281 101.96875 -154.5 C 106.675781 -156.132812 115.609375 -156.953125 128.765625 -156.953125 C 142.410156 -156.953125 151.5625 -156.148438 156.21875 -154.546875 C 160.882812 -152.953125 163.21875 -150.066406 163.21875 -145.890625 C 163.21875 -142.203125 161.144531 -139.328125 157 -137.265625 C 152.863281 -135.210938 150.484375 -133.769531 149.859375 -132.9375 C 148.878906 -131.550781 148.109375 -126.570312 147.546875 -118 C 146.992188 -109.4375 146.71875 -98.054688 146.71875 -83.859375 C 146.71875 -65.898438 146.992188 -51.609375 147.546875 -40.984375 C 148.109375 -30.367188 148.878906 -24.363281 149.859375 -22.96875 C 150.347656 -22.28125 152.695312 -20.875 156.90625 -18.75 C 161.113281 -16.625 163.21875 -13.71875 163.21875 -10.03125 C 163.21875 -5.851562 160.882812 -2.960938 156.21875 -1.359375 C 151.5625 0.242188 142.410156 1.046875 128.765625 1.046875 C 115.609375 1.046875 106.675781 0.226562 101.96875 -1.40625 C 97.269531 -3.039062 94.921875 -5.914062 94.921875 -10.03125 C 94.921875 -13.71875 96.765625 -16.484375 100.453125 -18.328125 C 104.148438 -20.171875 106.171875 -21.269531 106.515625 -21.625 C 107.492188 -22.59375 108.15625 -25.078125 108.5 -29.078125 C 108.851562 -33.085938 109.03125 -41.148438 109.03125 -53.265625 C 109.03125 -57.785156 108.976562 -61.191406 108.875 -63.484375 C 108.769531 -65.785156 108.539062 -67.285156 108.1875 -67.984375 C 107.5625 -69.378906 105.90625 -70.335938 103.21875 -70.859375 C 100.539062 -71.378906 94.019531 -71.640625 83.65625 -71.640625 C 74.664062 -71.640625 68.65625 -71.445312 65.625 -71.0625 C 62.601562 -70.675781 60.675781 -70 59.84375 -69.03125 C 59.28125 -68.332031 58.894531 -67.078125 58.6875 -65.265625 C 58.476562 -63.453125 58.375 -59.453125 58.375 -53.265625 C 58.375 -44.347656 58.53125 -37.296875 58.84375 -32.109375 C 59.15625 -26.921875 59.554688 -23.875 60.046875 -22.96875 C 60.609375 -21.925781 62.785156 -20.410156 66.578125 -18.421875 C 70.367188 -16.441406 72.265625 -13.644531 72.265625 -10.03125 C 72.265625 -5.851562 69.945312 -2.960938 65.3125 -1.359375 C 60.6875 0.242188 51.832031 1.046875 38.75 1.046875 C 25.101562 1.046875 15.945312 0.242188 11.28125 -1.359375 C 6.613281 -2.960938 4.28125 -5.851562 4.28125 -10.03125 C 4.28125 -13.71875 6.332031 -16.625 10.4375 -18.75 C 14.550781 -20.875 16.847656 -22.25 17.328125 -22.875 C 18.304688 -24.332031 19.09375 -30.367188 19.6875 -40.984375 C 20.28125 -51.609375 20.578125 -65.898438 20.578125 -83.859375 C 20.578125 -98.054688 20.296875 -109.4375 19.734375 -118 C 19.179688 -126.570312 18.378906 -131.585938 17.328125 -133.046875 C 16.847656 -133.742188 14.550781 -135.132812 10.4375 -137.21875 C 6.332031 -139.3125 4.28125 -142.203125 4.28125 -145.890625 C 4.28125 -150.066406 6.613281 -152.953125 11.28125 -154.546875 C 15.945312 -156.148438 25.101562 -156.953125 38.75 -156.953125 C 51.832031 -156.953125 60.6875 -156.148438 65.3125 -154.546875 C 69.945312 -152.953125 72.265625 -150.066406 72.265625 -145.890625 C 72.265625 -141.921875 69.828125 -138.859375 64.953125 -136.703125 C 62.929688 -135.796875 61.609375 -134.992188 60.984375 -134.296875 C 60.015625 -133.328125 59.300781 -130.472656 58.84375 -125.734375 C 58.394531 -121.003906 58.171875 -113.585938 58.171875 -103.484375 C 58.171875 -99.097656 59.226562 -96.332031 61.34375 -95.1875 C 63.46875 -94.039062 69.335938 -93.46875 78.953125 -93.46875 Z M 88.34375 -93.46875 "/></g></g></g><g fill="#407947" fill-opacity="1"><g transform="translate(164.899039, 210.530323)"><g><path d="M 5.53125 -52.84375 C 5.53125 -61.539062 7.097656 -69.546875 10.234375 -76.859375 C 13.367188 -84.171875 17.929688 -90.578125 23.921875 -96.078125 C 29.691406 -101.296875 36.160156 -105.257812 43.328125 -107.96875 C 50.503906 -110.6875 58.097656 -112.046875 66.109375 -112.046875 C 82.398438 -112.046875 95.800781 -106.875 106.3125 -96.53125 C 116.820312 -86.195312 122.078125 -72.992188 122.078125 -56.921875 C 122.078125 -48.421875 120.648438 -40.582031 117.796875 -33.40625 C 114.941406 -26.238281 110.765625 -19.875 105.265625 -14.3125 C 99.484375 -8.601562 93.023438 -4.285156 85.890625 -1.359375 C 78.753906 1.566406 71.007812 3.03125 62.65625 3.03125 C 45.8125 3.03125 32.078125 -2.15625 21.453125 -12.53125 C 10.835938 -22.90625 5.53125 -36.34375 5.53125 -52.84375 Z M 67.984375 -16.703125 C 73.066406 -16.703125 77.015625 -18.859375 79.828125 -23.171875 C 82.648438 -27.492188 84.0625 -33.519531 84.0625 -41.25 C 84.0625 -55.445312 81.535156 -67.554688 76.484375 -77.578125 C 71.441406 -87.609375 65.613281 -92.625 59 -92.625 C 54.125 -92.625 50.347656 -90.34375 47.671875 -85.78125 C 44.992188 -81.226562 43.65625 -74.804688 43.65625 -66.515625 C 43.65625 -52.804688 46.125 -41.078125 51.0625 -31.328125 C 56.007812 -21.578125 61.648438 -16.703125 67.984375 -16.703125 Z M 67.984375 -16.703125 "/></g></g></g><g fill="#407947" fill-opacity="1"><g transform="translate(288.766281, 210.530323)"><g><path d="M 53.46875 -102.859375 L 53.46875 -96.28125 C 53.46875 -95.3125 53.570312 -94.5625 53.78125 -94.03125 C 53.988281 -93.507812 54.300781 -93.25 54.71875 -93.25 C 55.832031 -93.25 57.4375 -94.539062 59.53125 -97.125 C 61.0625 -98.9375 62.3125 -100.363281 63.28125 -101.40625 C 66.34375 -104.46875 69.910156 -106.765625 73.984375 -108.296875 C 78.054688 -109.828125 82.632812 -110.59375 87.71875 -110.59375 C 92.726562 -110.59375 97.285156 -109.828125 101.390625 -108.296875 C 105.503906 -106.765625 109.546875 -104.328125 113.515625 -100.984375 C 115.179688 -99.660156 116.832031 -97.867188 118.46875 -95.609375 C 120.113281 -93.347656 121.25 -92.21875 121.875 -92.21875 C 122.84375 -92.21875 124.335938 -93.191406 126.359375 -95.140625 C 127.191406 -95.972656 127.851562 -96.632812 128.34375 -97.125 C 133.144531 -101.71875 137.984375 -105.109375 142.859375 -107.296875 C 147.734375 -109.492188 152.957031 -110.59375 158.53125 -110.59375 C 164.238281 -110.59375 169.5625 -109.53125 174.5 -107.40625 C 179.445312 -105.28125 183.453125 -102.335938 186.515625 -98.578125 C 189.710938 -94.679688 192.007812 -89.804688 193.40625 -83.953125 C 194.800781 -78.109375 195.5 -69.929688 195.5 -59.421875 L 195.5 -43.03125 C 195.5 -34.8125 195.632812 -29.132812 195.90625 -26 C 196.1875 -22.863281 196.675781 -20.8125 197.375 -19.84375 C 197.789062 -19.351562 199.753906 -18.148438 203.265625 -16.234375 C 206.785156 -14.328125 208.546875 -11.835938 208.546875 -8.765625 C 208.546875 -5.078125 206.332031 -2.484375 201.90625 -0.984375 C 197.488281 0.503906 189.429688 1.25 177.734375 1.25 C 165.972656 1.25 157.863281 0.503906 153.40625 -0.984375 C 148.945312 -2.484375 146.71875 -5.078125 146.71875 -8.765625 C 146.71875 -12.046875 148.945312 -14.726562 153.40625 -16.8125 C 155.144531 -17.644531 156.328125 -18.304688 156.953125 -18.796875 C 158.003906 -19.703125 158.738281 -21.648438 159.15625 -24.640625 C 159.570312 -27.640625 159.78125 -33.628906 159.78125 -42.609375 C 159.78125 -60.015625 158.59375 -71.238281 156.21875 -76.28125 C 153.851562 -81.332031 149.539062 -83.859375 143.28125 -83.859375 C 136.945312 -83.859375 132.226562 -80.878906 129.125 -74.921875 C 126.03125 -68.972656 124.484375 -59.90625 124.484375 -47.71875 C 124.484375 -38.53125 124.640625 -31.898438 124.953125 -27.828125 C 125.265625 -23.753906 125.804688 -21.09375 126.578125 -19.84375 C 126.992188 -19.351562 128.957031 -18.148438 132.46875 -16.234375 C 135.988281 -14.328125 137.75 -11.835938 137.75 -8.765625 C 137.75 -5.078125 135.5 -2.484375 131 -0.984375 C 126.507812 0.503906 118.421875 1.25 106.734375 1.25 C 95.035156 1.25 86.972656 0.503906 82.546875 -0.984375 C 78.128906 -2.484375 75.921875 -5.078125 75.921875 -8.765625 C 75.921875 -12.046875 78.113281 -14.726562 82.5 -16.8125 C 84.164062 -17.644531 85.316406 -18.304688 85.953125 -18.796875 C 87.066406 -19.773438 87.847656 -21.898438 88.296875 -25.171875 C 88.742188 -28.441406 88.96875 -34.253906 88.96875 -42.609375 C 88.96875 -59.804688 87.765625 -70.976562 85.359375 -76.125 C 82.960938 -81.28125 78.597656 -83.859375 72.265625 -83.859375 C 65.785156 -83.859375 61.03125 -80.773438 58 -74.609375 C 54.976562 -68.453125 53.46875 -58.757812 53.46875 -45.53125 C 53.46875 -37.101562 53.625 -30.992188 53.9375 -27.203125 C 54.25 -23.410156 54.789062 -20.992188 55.5625 -19.953125 C 55.976562 -19.390625 57.90625 -18.148438 61.34375 -16.234375 C 64.789062 -14.328125 66.515625 -11.835938 66.515625 -8.765625 C 66.515625 -5.078125 64.304688 -2.484375 59.890625 -0.984375 C 55.472656 0.503906 47.414062 1.25 35.71875 1.25 C 24.019531 1.25 15.925781 0.503906 11.4375 -0.984375 C 6.945312 -2.484375 4.703125 -5.078125 4.703125 -8.765625 C 4.703125 -12.046875 6.929688 -14.726562 11.390625 -16.8125 C 13.128906 -17.644531 14.3125 -18.304688 14.9375 -18.796875 C 16.050781 -19.703125 16.832031 -21.828125 17.28125 -25.171875 C 17.738281 -28.515625 17.96875 -36.378906 17.96875 -48.765625 C 17.96875 -62.128906 17.6875 -70.898438 17.125 -75.078125 C 16.570312 -79.265625 15.597656 -81.878906 14.203125 -82.921875 C 13.921875 -83.128906 11.832031 -83.84375 7.9375 -85.0625 C 4.039062 -86.28125 2.09375 -88.59375 2.09375 -92 C 2.09375 -93.675781 2.804688 -95.257812 4.234375 -96.75 C 5.660156 -98.25 7.800781 -99.660156 10.65625 -100.984375 C 17.0625 -103.972656 23.445312 -106.320312 29.8125 -108.03125 C 36.1875 -109.738281 41.632812 -110.59375 46.15625 -110.59375 C 48.9375 -110.59375 50.847656 -110.050781 51.890625 -108.96875 C 52.941406 -107.894531 53.46875 -105.859375 53.46875 -102.859375 Z M 53.46875 -102.859375 "/></g></g></g><g fill="#407947" fill-opacity="1"><g transform="translate(493.461884, 210.530323)"><g><path d="M 102.234375 -52.640625 L 49.8125 -52.640625 C 47.375 -52.640625 45.84375 -52.394531 45.21875 -51.90625 C 44.59375 -51.414062 44.28125 -50.507812 44.28125 -49.1875 C 44.28125 -41.8125 47.007812 -35.40625 52.46875 -29.96875 C 57.9375 -24.539062 64.601562 -21.828125 72.46875 -21.828125 C 78.320312 -21.828125 84.484375 -23.359375 90.953125 -26.421875 C 97.429688 -29.484375 101.191406 -31.015625 102.234375 -31.015625 C 104.253906 -31.015625 105.976562 -30.40625 107.40625 -29.1875 C 108.832031 -27.96875 109.546875 -26.523438 109.546875 -24.859375 C 109.546875 -22.066406 108.832031 -19.503906 107.40625 -17.171875 C 105.976562 -14.847656 103.523438 -12.328125 100.046875 -9.609375 C 94.890625 -5.503906 89.054688 -2.367188 82.546875 -0.203125 C 76.035156 1.953125 69.195312 3.03125 62.03125 3.03125 C 45.25 3.03125 31.632812 -2.207031 21.1875 -12.6875 C 10.75 -23.164062 5.53125 -36.757812 5.53125 -53.46875 C 5.53125 -70.382812 10.925781 -84.304688 21.71875 -95.234375 C 32.507812 -106.171875 46.226562 -111.640625 62.875 -111.640625 C 77.351562 -111.640625 89.238281 -107.566406 98.53125 -99.421875 C 107.820312 -91.273438 112.46875 -80.9375 112.46875 -68.40625 C 112.46875 -61.789062 111.769531 -57.507812 110.375 -55.5625 C 108.988281 -53.613281 106.273438 -52.640625 102.234375 -52.640625 Z M 47.71875 -68.1875 L 75.296875 -68.1875 C 76.753906 -68.1875 77.796875 -68.460938 78.421875 -69.015625 C 79.054688 -69.578125 79.375 -70.59375 79.375 -72.0625 C 79.375 -78.46875 77.664062 -83.707031 74.25 -87.78125 C 70.84375 -91.851562 66.492188 -93.890625 61.203125 -93.890625 C 56.390625 -93.890625 52.257812 -91.691406 48.8125 -87.296875 C 45.375 -82.910156 43.65625 -77.550781 43.65625 -71.21875 C 43.65625 -70.101562 43.945312 -69.335938 44.53125 -68.921875 C 45.125 -68.503906 46.1875 -68.257812 47.71875 -68.1875 Z M 47.71875 -68.1875 "/></g></g></g><g fill="#407947" fill-opacity="1"><g transform="translate(605.946321, 210.530323)"><g><path d="M 58.375 -92.625 C 60.113281 -92.414062 61.972656 -92.257812 63.953125 -92.15625 C 65.941406 -92.050781 67.945312 -92 69.96875 -92 C 81.382812 -92 89.648438 -93.722656 94.765625 -97.171875 C 99.890625 -100.617188 102.453125 -106.171875 102.453125 -113.828125 C 102.453125 -121.554688 100.03125 -127.332031 95.1875 -131.15625 C 90.351562 -134.988281 82.992188 -136.90625 73.109375 -136.90625 C 68.929688 -136.90625 65.914062 -136.503906 64.0625 -135.703125 C 62.21875 -134.898438 60.878906 -133.492188 60.046875 -131.484375 C 59.492188 -129.878906 59.078125 -126.726562 58.796875 -122.03125 C 58.515625 -117.332031 58.375 -109.304688 58.375 -97.953125 Z M 58.375 -69.03125 L 58.375 -49.1875 C 58.375 -41.53125 58.492188 -36.03125 58.734375 -32.6875 C 58.984375 -29.34375 59.351562 -26.941406 59.84375 -25.484375 C 60.882812 -23.046875 62.78125 -21.285156 65.53125 -20.203125 C 68.28125 -19.128906 72.367188 -18.59375 77.796875 -18.59375 C 88.453125 -18.59375 96.546875 -20.734375 102.078125 -25.015625 C 107.617188 -29.296875 110.390625 -35.578125 110.390625 -43.859375 C 110.390625 -53.191406 107.238281 -59.84375 100.9375 -63.8125 C 94.632812 -67.78125 83.71875 -69.765625 68.1875 -69.765625 C 66.3125 -69.765625 64.570312 -69.710938 62.96875 -69.609375 C 61.363281 -69.503906 59.832031 -69.3125 58.375 -69.03125 Z M 105.6875 -82.296875 C 119.75 -80.273438 130.414062 -75.816406 137.6875 -68.921875 C 144.96875 -62.023438 148.609375 -52.941406 148.609375 -41.671875 C 148.609375 -28.085938 143.472656 -17.535156 133.203125 -10.015625 C 122.929688 -2.503906 108.46875 1.25 89.8125 1.25 C 85.007812 1.25 77.503906 1.003906 67.296875 0.515625 C 57.097656 0.0351562 49.285156 -0.203125 43.859375 -0.203125 C 42.117188 -0.203125 38.742188 -0.132812 33.734375 0 C 28.722656 0.132812 24.613281 0.203125 21.40625 0.203125 C 15.769531 0.203125 11.503906 -0.664062 8.609375 -2.40625 C 5.722656 -4.144531 4.28125 -6.6875 4.28125 -10.03125 C 4.28125 -13.71875 6.367188 -16.625 10.546875 -18.75 C 14.722656 -20.875 17.054688 -22.25 17.546875 -22.875 C 18.585938 -24.332031 19.382812 -30.367188 19.9375 -40.984375 C 20.5 -51.609375 20.78125 -65.898438 20.78125 -83.859375 C 20.78125 -98.054688 20.5 -109.4375 19.9375 -118 C 19.382812 -126.570312 18.585938 -131.585938 17.546875 -133.046875 C 17.054688 -133.742188 14.722656 -135.132812 10.546875 -137.21875 C 6.367188 -139.3125 4.28125 -142.203125 4.28125 -145.890625 C 4.28125 -149.234375 5.738281 -151.773438 8.65625 -153.515625 C 11.582031 -155.253906 15.90625 -156.125 21.625 -156.125 C 25.375 -156.125 29.84375 -156.050781 35.03125 -155.90625 C 40.21875 -155.769531 43.507812 -155.703125 44.90625 -155.703125 C 50.332031 -155.703125 57.570312 -155.910156 66.625 -156.328125 C 75.675781 -156.742188 82.046875 -156.953125 85.734375 -156.953125 C 102.585938 -156.953125 115.535156 -153.695312 124.578125 -147.1875 C 133.628906 -140.6875 138.15625 -131.34375 138.15625 -119.15625 C 138.15625 -110.175781 135.421875 -102.707031 129.953125 -96.75 C 124.492188 -90.800781 116.40625 -86.503906 105.6875 -83.859375 C 105.269531 -83.648438 105.023438 -83.507812 104.953125 -83.4375 C 104.878906 -83.375 104.84375 -83.304688 104.84375 -83.234375 C 104.84375 -83.023438 104.878906 -82.882812 104.953125 -82.8125 C 105.023438 -82.738281 105.269531 -82.566406 105.6875 -82.296875 Z M 105.6875 -82.296875 "/></g></g></g></g></g><g clip-path="url(#866802fd89)"><path fill="#4c331d" d="M 1019.785156 417.738281 Z M 1019.785156 417.738281 L 969.074219 372.824219 L 918.332031 417.753906 L 918.332031 481.957031 C 918.332031 483.613281 919.671875 484.945312 921.332031 484.945312 L 953.042969 484.945312 L 953.042969 456.796875 C 953.042969 455.136719 954.371094 453.796875 956.03125 453.796875 L 982.085938 453.796875 C 983.746094 453.796875 985.074219 455.136719 985.074219 456.796875 L 985.074219 484.945312 L 1016.796875 484.945312 C 1018.453125 484.945312 1019.785156 483.613281 1019.785156 481.957031 L 1019.785156 417.734375 Z M 918.332031 417.757812 Z M 918.332031 417.757812 " fill-opacity="1" fill-rule="nonzero"/></g><g clip-path="url(#c3a5a37a42)"><path fill="#4c331d" d="M 968.78125 348.246094 L 896.8125 411.96875 L 904.394531 420.519531 L 969.074219 363.246094 L 1033.738281 420.519531 L 1041.304688 411.96875 L 969.355469 348.246094 L 969.074219 348.570312 Z M 968.78125 348.246094 " fill-opacity="1" fill-rule="nonzero"/></g><path fill="#4c331d" d="M 918.332031 357.421875 L 936.578125 357.421875 L 936.417969 368.226562 L 918.332031 384.5625 Z M 918.332031 357.421875 " fill-opacity="1" fill-rule="nonzero"/></svg>